<svg version='1.1' baseProfile='full' xmlns='http://www.w3.org/2000/svg' width='963.2416544710358' height='210.6531168633968'><g transform='translate(5, 5)'><g transform='scale(1.2769016087558314) translate(32.796875, -60)'><g><g><polyline points="30,120 72,120 114,120 " style="fill: none; stroke: black;"></polyline></g></g><g><g><polyline points="144,120 186,120 228,120 " style="fill: none; stroke: black;"></polyline><g transform="translate(184, 125)"><text text-anchor="start" y="3" transform="rotate(90)" font-size="12">50</text></g></g></g><g><g><polyline points="273.3359683794466,120 315.3359683794466,120 357.3359683794466,120 " style="fill: none; stroke: black;"></polyline><g transform="translate(313.3359683794466, 125)"><text text-anchor="start" y="3" transform="rotate(90)" font-size="12">50</text></g></g></g><g><g><polyline points="396.98023715415013,120 438.9802371541502,120 480.98023715415025,120 " style="fill: none; stroke: black;"></polyline><g transform="translate(436.98023715415013, 125)"><text text-anchor="start" y="3" transform="rotate(90)" font-size="12">50</text></g></g></g><g><g><polyline points="550.9802371541502,120 592.9802371541502,120 634.9802371541502,120 " style="fill: none; stroke: black;"></polyline><g transform="translate(590.9802371541502, 125)"><text text-anchor="start" y="3" transform="rotate(90)" font-size="12">50</text></g></g></g><g><g transform="translate(704.9802371541502, 125)"><text text-anchor="start" y="3" transform="rotate(90)" font-size="12">50</text></g></g><g><g transform="translate(0, 60)"><path d="M 0 0 L 30 0 V 120 L 0 120 V 0 z" style="fill: rgb(51, 34, 136); stroke: rgb(51, 34, 136); stroke-width: 4; stroke-linejoin: round;"></path><g></g><text text-anchor="middle" x="15" y="137" font-size="12">50</text><text text-anchor="middle" x="15" y="154" font-size="12">TextVectorization</text></g></g><g><g transform="translate(114, 60)"><path d="M 0 0 L 30 0 V 120 L 0 120 V 0 z" style="fill: rgb(68, 170, 153); stroke: rgb(53, 134, 120); stroke-width: 4; stroke-linejoin: round;"></path><g></g><text text-anchor="middle" x="15" y="137" font-size="12">100</text><text text-anchor="middle" x="15" y="154" font-size="12">GloVe Embedding</text></g></g><g><g transform="translate(228, 60)"><path d="M 0 0 L 45.33596837944664 0 V 120 L 0 120 V 0 z" style="fill: rgb(153, 153, 51); stroke: rgb(115, 115, 38); stroke-width: 4; stroke-linejoin: round;"></path><g></g><text text-anchor="middle" x="22.66798418972332" y="137" font-size="12">100</text><text text-anchor="middle" x="22.66798418972332" y="154" font-size="12">SpatialDropout1D</text></g></g><g><g transform="translate(357.3359683794466, 60)"><path d="M 0 0 L 39.644268774703555 0 V 120 L 0 120 V 0 z" style="fill: rgb(204, 102, 119); stroke: rgb(191, 64, 85); stroke-width: 4; stroke-linejoin: round;"></path><g></g><text text-anchor="middle" x="19.822134387351777" y="137" font-size="12">64</text><text text-anchor="middle" x="19.822134387351777" y="154" font-size="12">Bidirectional LSTM</text></g></g><g><g transform="translate(480.98023715415025, 60)"><path d="M 0 0 L 70 0 V 120 L 0 120 V 0 z" style="fill: rgb(204, 102, 119); stroke: rgb(191, 64, 85); stroke-width: 4; stroke-linejoin: round;"></path><g></g><text text-anchor="middle" x="35" y="137" font-size="12">256</text><text text-anchor="middle" x="35" y="154" font-size="12">Bidirectional LSTM</text></g></g><g><g transform="translate(634.9802371541502, 60)"><path d="M 0 0 L 30 0 V 120 L 0 120 V 0 z" style="fill: rgb(170, 68, 153); stroke: rgb(134, 53, 120); stroke-width: 4; stroke-linejoin: round;"></path><g></g><text text-anchor="middle" x="15" y="137" font-size="12">3</text><text text-anchor="middle" x="15" y="154" font-size="12">TimeDistributed</text></g></g></g></g></svg>